<?xml version="1.0" encoding="UTF-8"?>
<svg width="314px" height="314px" viewBox="0 0 314 314" version="1.1" xmlns="http://www.w3.org/2000/svg" xmlns:xlink="http://www.w3.org/1999/xlink">
    <!-- Generator: Sketch 52.6 (67491) - http://www.bohemiancoding.com/sketch -->
    <title>TrailFinder 2</title>
    <desc>Created with Sketch.</desc>
    <g id="Page-1" stroke="none" stroke-width="1" fill="none" fill-rule="evenodd">
        <g id="Artboard" transform="translate(-61.000000, -88.000000)">
            <rect id="Rectangle" fill="#1F2529" x="61" y="88" width="314" height="314" rx="4"></rect>
            <path d="M169.013184,257.76123 C170.141119,257.76123 171.126623,257.419437 171.969727,256.73584 C172.81283,256.052243 173.279947,255.197759 173.371094,254.172363 L176.361816,254.172363 C176.30485,255.231939 175.94027,256.24023 175.268066,257.197266 C174.595863,258.154302 173.698655,258.91764 172.576416,259.487305 C171.454177,260.056969 170.266445,260.341797 169.013184,260.341797 C166.495267,260.341797 164.492927,259.501555 163.006104,257.821045 C161.51928,256.140535 160.775879,253.841974 160.775879,250.925293 L160.775879,250.395508 C160.775879,248.595369 161.106279,246.994636 161.76709,245.593262 C162.4279,244.191888 163.376377,243.103845 164.612549,242.329102 C165.84872,241.554358 167.309887,241.166992 168.996094,241.166992 C171.069672,241.166992 172.792881,241.787917 174.165771,243.029785 C175.538662,244.271653 176.27067,245.883779 176.361816,247.866211 L173.371094,247.866211 C173.279947,246.669916 172.827071,245.68726 172.012451,244.918213 C171.197831,244.149166 170.192389,243.764648 168.996094,243.764648 C167.38964,243.764648 166.144943,244.342849 165.261963,245.499268 C164.378983,246.655686 163.9375,248.327626 163.9375,250.515137 L163.9375,251.113281 C163.9375,253.243826 164.376135,254.884434 165.253418,256.035156 C166.130701,257.185878 167.383944,257.76123 169.013184,257.76123 Z M179.079102,250.583496 C179.079102,248.771964 179.435136,247.142748 180.147217,245.695801 C180.859297,244.248853 181.850498,243.132328 183.12085,242.346191 C184.391201,241.560055 185.840975,241.166992 187.470215,241.166992 C189.988131,241.166992 192.02465,242.038566 193.579834,243.781738 C195.135018,245.524911 195.912598,247.84341 195.912598,250.737305 L195.912598,250.959473 C195.912598,252.759612 195.567956,254.374586 194.878662,255.804443 C194.189368,257.234301 193.203864,258.347978 191.922119,259.145508 C190.640374,259.943038 189.167814,260.341797 187.504395,260.341797 C184.997872,260.341797 182.967049,259.470224 181.411865,257.727051 C179.856682,255.983878 179.079102,253.676772 179.079102,250.805664 L179.079102,250.583496 Z M182.257812,250.959473 C182.257812,253.010264 182.733475,254.656569 183.684814,255.898438 C184.636154,257.140306 185.909334,257.76123 187.504395,257.76123 C189.110848,257.76123 190.386877,257.131761 191.33252,255.872803 C192.278162,254.613845 192.750977,252.85076 192.750977,250.583496 C192.750977,248.555491 192.269617,246.912034 191.306885,245.653076 C190.344152,244.394118 189.065275,243.764648 187.470215,243.764648 C185.909335,243.764648 184.650395,244.385573 183.693359,245.627441 C182.736323,246.86931 182.257812,248.646636 182.257812,250.959473 Z M203.3125,260 L200.150879,260 L200.150879,233.75 L203.3125,233.75 L203.3125,260 Z M207.533691,250.583496 C207.533691,248.771964 207.889726,247.142748 208.601807,245.695801 C209.313887,244.248853 210.305088,243.132328 211.575439,242.346191 C212.845791,241.560055 214.295565,241.166992 215.924805,241.166992 C218.442721,241.166992 220.47924,242.038566 222.034424,243.781738 C223.589607,245.524911 224.367188,247.84341 224.367188,250.737305 L224.367188,250.959473 C224.367188,252.759612 224.022546,254.374586 223.333252,255.804443 C222.643958,257.234301 221.658454,258.347978 220.376709,259.145508 C219.094964,259.943038 217.622404,260.341797 215.958984,260.341797 C213.452461,260.341797 211.421639,259.470224 209.866455,257.727051 C208.311272,255.983878 207.533691,253.676772 207.533691,250.805664 L207.533691,250.583496 Z M210.712402,250.959473 C210.712402,253.010264 211.188065,254.656569 212.139404,255.898438 C213.090744,257.140306 214.363924,257.76123 215.958984,257.76123 C217.565438,257.76123 218.841467,257.131761 219.787109,255.872803 C220.732752,254.613845 221.205566,252.85076 221.205566,250.583496 C221.205566,248.555491 220.724207,246.912034 219.761475,245.653076 C218.798742,244.394118 217.519865,243.764648 215.924805,243.764648 C214.363924,243.764648 213.104985,244.385573 212.147949,245.627441 C211.190913,246.86931 210.712402,248.646636 210.712402,250.959473 Z M237.27002,244.345703 C236.791502,244.26595 236.273115,244.226074 235.714844,244.226074 C233.641266,244.226074 232.234216,245.109041 231.493652,246.875 L231.493652,260 L228.332031,260 L228.332031,241.508789 L231.408203,241.508789 L231.459473,243.64502 C232.496262,241.992993 233.965974,241.166992 235.868652,241.166992 C236.48389,241.166992 236.951008,241.246744 237.27002,241.40625 L237.27002,244.345703 Z M246.583984,255.710449 L251.164062,241.508789 L254.394043,241.508789 L247.763184,260 L245.353516,260 L238.654297,241.508789 L241.884277,241.508789 L246.583984,255.710449 Z M264.887207,260.341797 C262.380684,260.341797 260.341316,259.518644 258.769043,257.872314 C257.196769,256.225985 256.410645,254.024265 256.410645,251.26709 L256.410645,250.686035 C256.410645,248.851716 256.760983,247.213956 257.46167,245.772705 C258.162357,244.331454 259.142165,243.203536 260.401123,242.388916 C261.660081,241.574296 263.024407,241.166992 264.494141,241.166992 C266.898124,241.166992 268.766595,241.958814 270.099609,243.54248 C271.432624,245.126147 272.099121,247.393377 272.099121,250.344238 L272.099121,251.660156 L259.572266,251.660156 C259.617839,253.483082 260.150467,254.955642 261.170166,256.077881 C262.189865,257.20012 263.485832,257.76123 265.058105,257.76123 C266.174648,257.76123 267.120276,257.533368 267.89502,257.077637 C268.669763,256.621905 269.347653,256.01807 269.928711,255.266113 L271.859863,256.77002 C270.310376,259.151216 267.986181,260.341797 264.887207,260.341797 Z M264.494141,243.764648 C263.218093,243.764648 262.14714,244.228918 261.28125,245.157471 C260.41536,246.086024 259.879884,247.387687 259.674805,249.0625 L268.9375,249.0625 L268.9375,248.823242 C268.846354,247.216789 268.413415,245.972091 267.638672,245.089111 C266.863928,244.206132 265.815762,243.764648 264.494141,243.764648 Z M284.694336,244.345703 C284.215818,244.26595 283.697431,244.226074 283.13916,244.226074 C281.065582,244.226074 279.658532,245.109041 278.917969,246.875 L278.917969,260 L275.756348,260 L275.756348,241.508789 L278.83252,241.508789 L278.883789,243.64502 C279.920578,241.992993 281.39029,241.166992 283.292969,241.166992 C283.908206,241.166992 284.375324,241.246744 284.694336,241.40625 L284.694336,244.345703 Z M298.366211,255.095215 C298.366211,254.240718 298.044355,253.577069 297.400635,253.104248 C296.756914,252.631427 295.634692,252.224123 294.033936,251.882324 C292.433179,251.540526 291.162846,251.130373 290.2229,250.651855 C289.282954,250.173337 288.587974,249.603682 288.137939,248.942871 C287.687905,248.28206 287.462891,247.495936 287.462891,246.584473 C287.462891,245.069166 288.103753,243.78744 289.385498,242.739258 C290.667243,241.691075 292.305003,241.166992 294.298828,241.166992 C296.395193,241.166992 298.095615,241.708165 299.400146,242.790527 C300.704678,243.87289 301.356934,245.257153 301.356934,246.943359 L298.178223,246.943359 C298.178223,246.07747 297.810795,245.331221 297.075928,244.70459 C296.341061,244.077959 295.41537,243.764648 294.298828,243.764648 C293.148106,243.764648 292.24805,244.015297 291.598633,244.516602 C290.949216,245.017906 290.624512,245.67301 290.624512,246.481934 C290.624512,247.245284 290.926429,247.820636 291.530273,248.208008 C292.134118,248.59538 293.225008,248.965656 294.802979,249.318848 C296.380949,249.67204 297.659826,250.093585 298.639648,250.583496 C299.619471,251.073407 300.345782,251.663001 300.818604,252.352295 C301.291425,253.041589 301.527832,253.881831 301.527832,254.873047 C301.527832,256.525073 300.867031,257.849523 299.54541,258.846436 C298.223789,259.843348 296.509125,260.341797 294.401367,260.341797 C292.92024,260.341797 291.610032,260.079755 290.470703,259.555664 C289.331375,259.031573 288.439863,258.299565 287.796143,257.359619 C287.152422,256.419673 286.830566,255.402838 286.830566,254.309082 L289.992188,254.309082 C290.049154,255.368658 290.473547,256.2089 291.265381,256.829834 C292.057214,257.450768 293.102533,257.76123 294.401367,257.76123 C295.597662,257.76123 296.557532,257.519127 297.281006,257.034912 C298.00448,256.550697 298.366211,255.904138 298.366211,255.095215 Z M313.319824,260.341797 C310.813301,260.341797 308.773934,259.518644 307.20166,257.872314 C305.629387,256.225985 304.843262,254.024265 304.843262,251.26709 L304.843262,250.686035 C304.843262,248.851716 305.1936,247.213956 305.894287,245.772705 C306.594974,244.331454 307.574782,243.203536 308.83374,242.388916 C310.092698,241.574296 311.457024,241.166992 312.926758,241.166992 C315.330741,241.166992 317.199212,241.958814 318.532227,243.54248 C319.865241,245.126147 320.531738,247.393377 320.531738,250.344238 L320.531738,251.660156 L308.004883,251.660156 C308.050456,253.483082 308.583084,254.955642 309.602783,256.077881 C310.622482,257.20012 311.918449,257.76123 313.490723,257.76123 C314.607265,257.76123 315.552893,257.533368 316.327637,257.077637 C317.10238,256.621905 317.780271,256.01807 318.361328,255.266113 L320.29248,256.77002 C318.742994,259.151216 316.418798,260.341797 313.319824,260.341797 Z M312.926758,243.764648 C311.65071,243.764648 310.579757,244.228918 309.713867,245.157471 C308.847977,246.086024 308.312501,247.387687 308.107422,249.0625 L317.370117,249.0625 L317.370117,248.823242 C317.278971,247.216789 316.846033,245.972091 316.071289,245.089111 C315.296546,244.206132 314.248379,243.764648 312.926758,243.764648 Z" id="colorverse" fill="#FFFFFF"></path>
            <rect id="Rectangle" stroke-opacity="0" stroke="#979797" fill="#324CE3" x="130.5" y="193.5" width="37" height="35" rx="8"></rect>
            <rect id="Rectangle-Copy-2" stroke-opacity="0" stroke="#979797" fill="#BE13FE" x="163.5" y="175.5" width="37" height="35" rx="8"></rect>
            <rect id="Rectangle-Copy-3" stroke-opacity="0" stroke="#979797" fill="#2982EA" x="104.5" y="222.5" width="37" height="35" rx="8"></rect>
            <rect id="Rectangle-Copy" stroke-opacity="0.330842391" stroke="#0FCE4F" fill="#54DE7E" x="104.5" y="175.5" width="37" height="35" rx="8"></rect>
        </g>
    </g>
</svg>