<?xml version="1.0" encoding="UTF-8"?>
<svg width="314px" height="314px" viewBox="0 0 314 314" version="1.1" xmlns="http://www.w3.org/2000/svg" xmlns:xlink="http://www.w3.org/1999/xlink">
    <!-- Generator: Sketch 52.6 (67491) - http://www.bohemiancoding.com/sketch -->
    <title>HN</title>
    <desc>Created with Sketch.</desc>
    <g id="Page-1" stroke="none" stroke-width="1" fill="none" fill-rule="evenodd">
        <g id="Artboard" transform="translate(-281.000000, -868.000000)">
            <g id="HN" transform="translate(281.000000, 868.000000)">
                <path d="M4,0 L310,0 C312.209139,-4.05812251e-16 314,1.790861 314,4 L314,310 C314,312.209139 312.209139,314 310,314 L4,314 C1.790861,314 2.705415e-16,312.209139 0,310 L0,4 C-2.705415e-16,1.790861 1.790861,4.05812251e-16 4,0 Z" id="Airbnb" fill="#FF6600"></path>
                <path d="M130.413086,174 L130.413086,138.208984 L136.321289,138.208984 L136.321289,152.295898 L147.942383,152.295898 L147.942383,138.208984 L153.875,138.208984 L153.875,174 L147.942383,174 L147.942383,158.350586 L136.321289,158.350586 L136.321289,174 L130.413086,174 Z M160.051758,174 L160.051758,138.208984 L165.813477,138.208984 L177.825195,162.110352 L177.825195,138.208984 L183.342773,138.208984 L183.342773,174 L177.385742,174 L165.569336,150.660156 L165.569336,174 L160.051758,174 Z" fill="#FFFFFF"></path>
                <rect id="Rectangle" stroke="#FDFCF9" stroke-width="4" x="107" y="112" width="99" height="91"></rect>
            </g>
        </g>
    </g>
</svg>