<?xml version="1.0" encoding="UTF-8"?>
<svg width="314px" height="314px" viewBox="0 0 314 314" version="1.1" xmlns="http://www.w3.org/2000/svg" xmlns:xlink="http://www.w3.org/1999/xlink">
    <!-- Generator: Sketch 52.6 (67491) - http://www.bohemiancoding.com/sketch -->
    <title>Shell</title>
    <desc>Created with Sketch.</desc>
    <g id="Page-1" stroke="none" stroke-width="1" fill="none" fill-rule="evenodd">
        <g id="Artboard" transform="translate(-420.000000, -442.000000)">
            <g id="Shell" transform="translate(420.000000, 442.000000)">
                <path d="M4,0.5 C2.06700338,0.5 0.5,2.06700338 0.5,4 L0.5,310 C0.5,311.932997 2.06700338,313.5 4,313.5 L310,313.5 C311.932997,313.5 313.5,311.932997 313.5,310 L313.5,4 C313.5,2.06700338 311.932997,0.5 310,0.5 L4,0.5 Z" id="Airbnb" stroke="#28284A" fill="#28284A"></path>
                <path d="M108.200684,147.007812 C108.386231,146.753905 108.588866,146.563477 108.808594,146.436523 C109.028321,146.30957 109.265135,146.246094 109.519043,146.246094 C109.958498,146.246094 110.317381,146.397459 110.595703,146.700195 C110.874025,147.002931 111.013184,147.515621 111.013184,148.238281 L111.013184,150.787109 C111.013184,151.509769 110.874025,152.024901 110.595703,152.33252 C110.317381,152.640138 109.958498,152.793945 109.519043,152.793945 C109.11865,152.793945 108.796388,152.681642 108.552246,152.457031 C108.308104,152.232421 108.127442,151.812503 108.010254,151.197266 C107.941894,150.787107 107.805177,150.469728 107.600098,150.245117 C107.199705,149.805662 106.640629,149.454103 105.922852,149.19043 C105.205075,148.926756 104.484867,148.794922 103.762207,148.794922 C102.863765,148.794922 102.038578,148.990232 101.286621,149.380859 C100.534664,149.771486 99.8706083,150.406246 99.2944336,151.285156 C98.7182588,152.164067 98.4301758,153.208978 98.4301758,154.419922 L98.4301758,156.368164 C98.4301758,157.813484 98.9550729,159.019526 100.004883,159.986328 C101.054693,160.95313 102.512198,161.436523 104.377441,161.436523 C105.490728,161.436523 106.433102,161.285158 107.20459,160.982422 C107.653811,160.80664 108.132322,160.459964 108.640137,159.942383 C108.952638,159.629881 109.196776,159.427247 109.372559,159.334473 C109.548341,159.241699 109.748534,159.195312 109.973145,159.195312 C110.373537,159.195312 110.725096,159.346678 111.027832,159.649414 C111.330568,159.95215 111.481934,160.308592 111.481934,160.71875 C111.481934,161.128908 111.276858,161.568357 110.866699,162.037109 C110.270993,162.720707 109.504399,163.257811 108.566895,163.648438 C107.307123,164.175784 105.915535,164.439453 104.39209,164.439453 C102.614737,164.439453 101.013191,164.073246 99.5874023,163.34082 C98.4350528,162.75488 97.4536173,161.829596 96.6430664,160.564941 C95.8325155,159.300287 95.4272461,157.920906 95.4272461,156.426758 L95.4272461,154.390625 C95.4272461,152.828117 95.791012,151.370612 96.5185547,150.018066 C97.2460974,148.665521 98.2543881,147.623051 99.543457,146.890625 C100.832526,146.158199 102.1997,145.791992 103.64502,145.791992 C104.514165,145.791992 105.327145,145.892089 106.083984,146.092285 C106.840824,146.292481 107.546383,146.597654 108.200684,147.007812 Z M135.109863,163.238281 C134.84619,163.550783 134.63379,163.750976 134.472656,163.838867 C134.311523,163.926758 134.113771,163.970703 133.879395,163.970703 C133.420408,163.970703 133.051759,163.816896 132.773438,163.509277 C132.495116,163.201659 132.355957,162.69141 132.355957,161.978516 L132.355957,159.957031 C132.355957,159.234371 132.495116,158.71924 132.773438,158.411621 C133.051759,158.104002 133.420408,157.950195 133.879395,157.950195 C134.230959,157.950195 134.526366,158.042968 134.765625,158.228516 C135.004884,158.414063 135.187988,158.724119 135.314941,159.158691 C135.441895,159.593264 135.57373,159.888671 135.710449,160.044922 C135.993654,160.347658 136.496578,160.655272 137.219238,160.967773 C137.941898,161.280275 138.732906,161.436523 139.592285,161.436523 C140.930182,161.436523 142.028804,161.124027 142.888184,160.499023 C143.435061,160.118162 143.708496,159.649417 143.708496,159.092773 C143.708496,158.721678 143.576661,158.37256 143.312988,158.04541 C143.049315,157.71826 142.619632,157.447267 142.023926,157.232422 C141.633299,157.085937 140.759284,156.885743 139.401855,156.631836 C137.761222,156.3291 136.521,155.962893 135.681152,155.533203 C134.841304,155.103513 134.177249,154.498051 133.688965,153.716797 C133.200681,152.935543 132.956543,152.090825 132.956543,151.182617 C132.956543,149.747063 133.557123,148.489751 134.758301,147.410645 C135.959479,146.331538 137.521963,145.791992 139.445801,145.791992 C140.217289,145.791992 140.932614,145.877441 141.591797,146.04834 C142.25098,146.219239 142.849118,146.480467 143.38623,146.832031 C143.776857,146.45117 144.167479,146.260742 144.558105,146.260742 C144.997561,146.260742 145.356444,146.414549 145.634766,146.722168 C145.913087,147.029787 146.052246,147.540035 146.052246,148.25293 L146.052246,150.508789 C146.052246,151.231449 145.913087,151.74658 145.634766,152.054199 C145.356444,152.361818 144.997561,152.515625 144.558105,152.515625 C144.18701,152.515625 143.864747,152.403321 143.591309,152.178711 C143.376464,152.012694 143.215333,151.680667 143.10791,151.182617 C143.000488,150.684568 142.86377,150.328126 142.697754,150.113281 C142.414549,149.742186 141.989749,149.429689 141.42334,149.175781 C140.856931,148.921874 140.20264,148.794922 139.460449,148.794922 C138.376459,148.794922 137.519534,149.046384 136.889648,149.549316 C136.259762,150.052249 135.944824,150.577146 135.944824,151.124023 C135.944824,151.495119 136.074217,151.854002 136.333008,152.200684 C136.591798,152.547365 136.970212,152.818358 137.468262,153.013672 C137.800295,153.150391 138.735344,153.370116 140.273438,153.672852 C141.811531,153.975587 142.99316,154.307615 143.818359,154.668945 C144.643559,155.030275 145.329587,155.596676 145.876465,156.368164 C146.423343,157.139652 146.696777,158.057612 146.696777,159.12207 C146.696777,160.606453 146.174322,161.792964 145.129395,162.681641 C143.742669,163.853521 141.975108,164.439453 139.82666,164.439453 C138.996578,164.439453 138.18848,164.339356 137.402344,164.13916 C136.616207,163.938964 135.852054,163.638674 135.109863,163.238281 Z M154.401855,145.000977 L154.401855,151.402344 C155.026859,151.031248 155.659176,150.755372 156.298828,150.574707 C156.93848,150.394042 157.585446,150.303711 158.239746,150.303711 C159.274908,150.303711 160.19775,150.47949 161.008301,150.831055 C161.818852,151.182619 162.490232,151.736813 163.022461,152.493652 C163.55469,153.250492 163.820801,154.205072 163.820801,155.357422 L163.820801,160.99707 C164.582523,160.99707 165.080565,161.070312 165.314941,161.216797 C165.783694,161.519533 166.018066,161.949216 166.018066,162.505859 C166.018066,162.945315 165.866701,163.304198 165.563965,163.58252 C165.261229,163.860841 164.748539,164 164.025879,164 L160.598145,164 C159.88525,164 159.375002,163.860841 159.067383,163.58252 C158.759764,163.304198 158.605957,162.940432 158.605957,162.491211 C158.605957,161.944333 158.84033,161.519533 159.309082,161.216797 C159.553224,161.060546 160.051266,160.987305 160.803223,160.99707 L160.803223,155.5625 C160.803223,154.791012 160.627443,154.249025 160.275879,153.936523 C159.816892,153.516599 159.138188,153.306641 158.239746,153.306641 C157.57568,153.306641 156.987307,153.436034 156.474609,153.694824 C155.961911,153.953615 155.271,154.512691 154.401855,155.37207 L154.401855,160.99707 C155.173344,160.99707 155.671386,161.070312 155.895996,161.216797 C156.374514,161.519533 156.61377,161.949216 156.61377,162.505859 C156.61377,162.945315 156.459962,163.304198 156.152344,163.58252 C155.844725,163.860841 155.329593,164 154.606934,164 L151.193848,164 C150.471188,164 149.956056,163.860841 149.648438,163.58252 C149.340819,163.304198 149.187012,162.940432 149.187012,162.491211 C149.187012,161.944333 149.426267,161.519533 149.904785,161.216797 C150.139161,161.060546 150.637203,160.987305 151.398926,160.99707 L151.398926,148.003906 L150.88623,148.003906 C150.163571,148.003906 149.648439,147.864747 149.34082,147.586426 C149.033202,147.308104 148.879395,146.944338 148.879395,146.495117 C148.879395,146.055662 149.033202,145.696779 149.34082,145.418457 C149.648439,145.140135 150.163571,145.000977 150.88623,145.000977 L154.401855,145.000977 Z M183.039551,158.873047 L170.720215,158.873047 C171.032716,159.654301 171.58691,160.284177 172.382812,160.762695 C173.178715,161.241213 174.255364,161.480469 175.612793,161.480469 C176.72608,161.480469 178.205557,161.241213 180.05127,160.762695 C180.812992,160.567382 181.340331,160.469727 181.633301,160.469727 C182.033693,160.469727 182.370604,160.611327 182.644043,160.894531 C182.917482,161.177736 183.054199,161.534178 183.054199,161.963867 C183.054199,162.354494 182.907716,162.686522 182.614746,162.959961 C182.224119,163.321291 181.27198,163.665526 179.758301,163.992676 C178.244621,164.319826 176.789558,164.483398 175.393066,164.483398 C172.990711,164.483398 171.069343,163.804694 169.628906,162.447266 C168.188469,161.089837 167.468262,159.419932 167.468262,157.4375 C167.468262,155.328114 168.247063,153.611823 169.804688,152.288574 C171.362312,150.965325 173.156728,150.303711 175.187988,150.303711 C176.408698,150.303711 177.529292,150.518553 178.549805,150.948242 C179.570318,151.377932 180.329587,151.841794 180.827637,152.339844 C181.530765,153.062504 182.111814,153.956049 182.570801,155.020508 C182.883302,155.762699 183.039551,156.622065 183.039551,157.598633 L183.039551,158.873047 Z M179.714355,155.870117 C179.255369,155.010738 178.654789,154.368654 177.912598,153.943848 C177.170406,153.519041 176.286626,153.306641 175.26123,153.306641 C174.2456,153.306641 173.366703,153.519041 172.624512,153.943848 C171.882321,154.368654 171.276858,155.010738 170.808105,155.870117 L179.714355,155.870117 Z M195.007324,145.000977 L195.007324,160.99707 L198.61084,160.99707 C199.3335,160.99707 199.848631,161.136229 200.15625,161.414551 C200.463869,161.692872 200.617676,162.056638 200.617676,162.505859 C200.617676,162.945315 200.463869,163.304198 200.15625,163.58252 C199.848631,163.860841 199.3335,164 198.61084,164 L188.400879,164 C187.678219,164 187.163087,163.860841 186.855469,163.58252 C186.54785,163.304198 186.394043,162.940432 186.394043,162.491211 C186.394043,162.051756 186.54785,161.692872 186.855469,161.414551 C187.163087,161.136229 187.678219,160.99707 188.400879,160.99707 L192.004395,160.99707 L192.004395,148.003906 L189.587402,148.003906 C188.874508,148.003906 188.361818,147.864747 188.049316,147.586426 C187.736815,147.308104 187.580566,146.944338 187.580566,146.495117 C187.580566,146.055662 187.734373,145.696779 188.041992,145.418457 C188.349611,145.140135 188.864742,145.000977 189.587402,145.000977 L195.007324,145.000977 Z M213.010254,145.000977 L213.010254,160.99707 L216.61377,160.99707 C217.336429,160.99707 217.851561,161.136229 218.15918,161.414551 C218.466798,161.692872 218.620605,162.056638 218.620605,162.505859 C218.620605,162.945315 218.466798,163.304198 218.15918,163.58252 C217.851561,163.860841 217.336429,164 216.61377,164 L206.403809,164 C205.681149,164 205.166017,163.860841 204.858398,163.58252 C204.55078,163.304198 204.396973,162.940432 204.396973,162.491211 C204.396973,162.051756 204.55078,161.692872 204.858398,161.414551 C205.166017,161.136229 205.681149,160.99707 206.403809,160.99707 L210.007324,160.99707 L210.007324,148.003906 L207.590332,148.003906 C206.877438,148.003906 206.364748,147.864747 206.052246,147.586426 C205.739745,147.308104 205.583496,146.944338 205.583496,146.495117 C205.583496,146.055662 205.737303,145.696779 206.044922,145.418457 C206.352541,145.140135 206.867672,145.000977 207.590332,145.000977 L213.010254,145.000977 Z" id="C-Shell" fill="#FFFFFF"></path>
            </g>
        </g>
    </g>
</svg>