<?xml version="1.0" encoding="UTF-8"?>
<svg width="314px" height="314px" viewBox="0 0 314 314" version="1.1" xmlns="http://www.w3.org/2000/svg" xmlns:xlink="http://www.w3.org/1999/xlink">
    <!-- Generator: Sketch 52.5 (67469) - http://www.bohemiancoding.com/sketch -->
    <title>TrailFinder1</title>
    <desc>Created with Sketch.</desc>
    <defs>
        <text id="text-1" font-family="Raleway-Regular, Raleway" font-size="38" font-weight="normal" fill="#920D0D">
            <tspan x="240" y="124">V2</tspan>
        </text>
        <filter x="-14.3%" y="-12.8%" width="128.6%" height="135.9%" filterUnits="objectBoundingBox" id="filter-2">
            <feOffset dx="0" dy="0" in="SourceAlpha" result="shadowOffsetOuter1"></feOffset>
            <feGaussianBlur stdDeviation="2" in="shadowOffsetOuter1" result="shadowBlurOuter1"></feGaussianBlur>
            <feColorMatrix values="0 0 0 0 0   0 0 0 0 0   0 0 0 0 0  0 0 0 0.5 0" type="matrix" in="shadowBlurOuter1"></feColorMatrix>
        </filter>
    </defs>
    <g id="Page-1" stroke="none" stroke-width="1" fill="none" fill-rule="evenodd">
        <g id="Artboard" transform="translate(-377.000000, -88.000000)">
            <g id="TrailFinder1" transform="translate(377.000000, 88.000000)">
                <rect id="Rectangle" fill="#0A1B2E" x="0.5" y="0.5" width="313" height="313" rx="4"></rect>
                <text id="TrailFinder" fill="#FFFFFF" font-family="Montserrat-Regular, Montserrat" font-size="38" font-weight="normal">
                    <tspan x="39" y="138">TrailFinder</tspan>
                </text>
                <g id="compass" transform="translate(124.000000, 163.000000)" fill="#FBFBFB" fill-rule="nonzero">
                    <path d="M33,20 C19.7663775,20 9,30.7663775 9,44 C9,57.2336225 19.7663775,68 33,68 C46.2336225,68 57,57.2336225 57,44 C57,30.7663775 46.2336225,20 33,20 Z M34.554571,64.8333479 L34.554571,62.8302278 C34.554571,61.9716193 33.8586084,61.2756568 33,61.2756568 C32.1413916,61.2756568 31.445429,61.9716193 31.445429,62.8302278 L31.445429,64.8333479 C21.1626459,64.0732855 12.9267145,55.8375039 12.1666521,45.5547207 L14.1697722,45.5547207 C15.0283807,45.5547207 15.7243432,44.8586084 15.7243432,44.0001498 C15.7243432,43.1415413 15.0283807,42.4455788 14.1697722,42.4455788 L12.1666521,42.4455788 C12.9267145,32.1626459 21.1624961,23.9268643 31.445429,23.1668019 L31.445429,25.169922 C31.445429,26.0283807 32.1413916,26.724493 33,26.724493 C33.8586084,26.724493 34.554571,26.0283807 34.554571,25.169922 L34.554571,23.1668019 C44.8373541,23.9268643 53.0732855,32.1626459 53.8331981,42.4455788 L51.8302278,42.4455788 C50.9716193,42.4455788 50.2756568,43.1415413 50.2756568,44.0001498 C50.2756568,44.8586084 50.9716193,45.5547207 51.8302278,45.5547207 L53.8333479,45.5547207 C53.0731357,55.8373541 44.8373541,64.0732855 34.554571,64.8333479 Z" id="Shape"></path>
                    <path d="M34.5649951,11.2108472 L34.5649951,9.18283363 L37.0793311,9.18283363 C37.9437801,9.18283363 38.6444769,8.48396976 38.6444769,7.62178199 L38.6444769,1.56105164 C38.6444769,0.698863869 37.9437801,0 37.0793311,0 L28.9196134,0 C28.0551644,0 27.3544676,0.698863869 27.3544676,1.56105164 L27.3544676,7.62178199 C27.3544676,8.48396976 28.0551644,9.18283363 28.9196134,9.18283363 L31.4350049,9.18283363 L31.4350049,11.2108472 C13.9626693,12.0286699 0,26.4611788 0,44.0863241 C0,62.2349781 14.803596,77 33,77 C51.196404,77 66,62.2349781 66,44.0863241 C66,26.4611788 52.0371799,12.0286699 34.5649951,11.2108472 Z M30.4846085,6.06088074 L30.4846085,3.12210328 L35.5141852,3.12210328 L35.5141852,6.06088074 L30.4846085,6.06088074 Z M32.9998492,73.7136705 C16.6204016,73.7136705 3.29479793,60.422925 3.29479793,44.0863241 C3.29479793,27.7497231 16.6204016,14.459128 32.9998492,14.459128 C49.3792968,14.459128 62.7049005,27.7498735 62.7049005,44.0864744 C62.7050513,60.4230753 49.3794476,73.7136705 32.9998492,73.7136705 Z" id="Shape"></path>
                    <path d="M44.5407762,32.4593539 C44.0785993,31.9971714 43.3783863,31.8701467 42.7832958,32.1405084 L28.4391987,38.6606044 C28.4272667,38.6660419 28.4160899,38.6726876 28.4041578,38.6784272 C28.3802938,38.6899062 28.3564298,38.7018384 28.3330189,38.7146768 C28.3118735,38.7261558 28.2916344,38.7386921 28.2710932,38.7513795 C28.2500989,38.7642179 28.2289535,38.7767542 28.2084123,38.7908009 C28.1840952,38.8072643 28.1608353,38.825087 28.1374244,38.8429098 C28.1218675,38.8548419 28.1058574,38.8660189 28.0907536,38.8785552 C28.013422,38.9424451 27.9424341,39.013434 27.8785449,39.0907664 C27.8658577,39.1063236 27.8545299,39.1224849 27.8424468,39.138193 C27.8247753,39.1613021 27.8071039,39.1842602 27.7909428,39.2082756 C27.7767452,39.2291191 27.7639069,39.2505668 27.7507666,39.2720145 C27.7385325,39.2919518 27.7262984,39.3118891 27.7149706,39.3325815 C27.7018302,39.3564459 27.6898982,39.3806123 27.6779662,39.4050808 C27.6723778,39.4165598 27.6658832,39.4275857 27.6605968,39.4392158 L21.1405801,53.7834875 C20.8700707,54.3784342 20.9972449,55.0788069 21.4592707,55.5406873 C21.7596857,55.8412569 22.1608431,56 22.5681931,56 C22.7873495,56 23.0083184,55.9539328 23.2166001,55.8593817 L37.5606972,49.3392857 C37.5726292,49.3338482 37.583655,49.3272025 37.5952849,49.321614 C37.6193,49.3098329 37.6433151,49.2980517 37.666877,49.2852133 C37.6878714,49.2737343 37.7079594,49.261349 37.7281986,49.2489637 C37.7493439,49.2361253 37.7706403,49.223438 37.7911815,49.2092402 C37.8151966,49.1929279 37.8384564,49.1752562 37.8614142,49.1575845 C37.8772733,49.1455013 37.8934343,49.1341733 37.9088402,49.1214859 C37.9860207,49.0577471 38.0570087,48.9867582 38.1207468,48.9095768 C38.1338871,48.8937176 38.1456681,48.8769521 38.1580532,48.8607909 C38.1752716,48.8381348 38.19249,48.8157809 38.2085,48.7922187 C38.2228486,48.7710731 38.2358379,48.7494744 38.2491293,48.7278756 C38.2612123,48.7080894 38.2734464,48.6884542 38.2846233,48.6679127 C38.2977636,48.6440484 38.3098466,48.6195799 38.3217787,48.5951114 C38.3273671,48.5837834 38.3338617,48.5727575 38.339148,48.5611274 L44.8591647,34.2168557 C45.1299762,33.6216069 45.0029531,32.9213853 44.5407762,32.4593539 Z M25.7247403,51.2750147 L29.5787819,42.7960805 L34.2035713,47.4209262 L25.7247403,51.2750147 Z M36.420812,45.2039607 L31.7960225,40.5791149 L40.2748535,36.7250264 L36.420812,45.2039607 Z" id="Shape"></path>
                </g>
                <path d="M254,147.5 L63,147.5" id="Line" stroke="#FFFFFF" stroke-width="2" fill="#FFFFFF" stroke-linecap="square"></path>
                <g id="V2" fill="#920D0D" fill-opacity="1">
                    <use filter="url(#filter-2)" xlink:href="#text-1"></use>
                    <use xlink:href="#text-1"></use>
                </g>
            </g>
        </g>
    </g>
</svg>