<?xml version="1.0" encoding="UTF-8"?>
<svg width="314px" height="314px" viewBox="0 0 314 314" version="1.1" xmlns="http://www.w3.org/2000/svg" xmlns:xlink="http://www.w3.org/1999/xlink">
    <!-- Generator: Sketch 52.6 (67491) - http://www.bohemiancoding.com/sketch -->
    <title>TrailFinder2</title>
    <desc>Created with Sketch.</desc>
    <defs>
        <path d="M48.5,113.832 L39.152,113.832 L39.152,111.4 L60.66,111.4 L60.66,113.832 L51.312,113.832 L51.312,138 L48.5,138 L48.5,113.832 Z M66.626,121.926 C67.2593365,120.583327 68.2029937,119.570003 69.457,118.886 C70.7110063,118.201997 72.2626574,117.86 74.112,117.86 L74.112,120.482 L73.466,120.444 C71.3633228,120.444 69.7166726,121.089994 68.526,122.382 C67.3353274,123.674006 66.74,125.485322 66.74,127.816 L66.74,138 L64.042,138 L64.042,118.012 L66.626,118.012 L66.626,121.926 Z M85.93,117.86 C88.5393464,117.86 90.5406597,118.512327 91.934,119.817 C93.3273403,121.121673 94.024,123.053321 94.024,125.612 L94.024,138 L91.44,138 L91.44,134.884 C90.831997,135.922672 89.9390059,136.73333 88.761,137.316 C87.5829941,137.89867 86.1833414,138.19 84.562,138.19 C82.3326555,138.19 80.5593399,137.658005 79.242,136.594 C77.9246601,135.529995 77.266,134.124009 77.266,132.376 C77.266,130.678658 77.8803272,129.310672 79.109,128.272 C80.3376728,127.233328 82.2946532,126.714 84.98,126.714 L91.326,126.714 L91.326,125.498 C91.326,123.775325 90.8446715,122.464338 89.882,121.565 C88.9193285,120.665662 87.5133426,120.216 85.664,120.216 C84.397327,120.216 83.1813392,120.424998 82.016,120.843 C80.8506608,121.261002 79.8500042,121.83733 79.014,122.572 L77.798,120.558 C78.8113384,119.696662 80.0273262,119.031669 81.446,118.563 C82.8646738,118.094331 84.3593255,117.86 85.93,117.86 Z M84.98,136.062 C86.5000076,136.062 87.8046612,135.71367 88.894,135.017 C89.9833388,134.32033 90.7939973,133.31334 91.326,131.996 L91.326,128.728 L85.056,128.728 C81.6359829,128.728 79.926,129.918655 79.926,132.3 C79.926,133.465339 80.3693289,134.383663 81.256,135.055 C82.1426711,135.726337 83.383992,136.062 84.98,136.062 Z M101.358,118.012 L104.056,118.012 L104.056,138 L101.358,138 L101.358,118.012 Z M102.726,113.642 C102.168664,113.642 101.700002,113.452002 101.32,113.072 C100.939998,112.691998 100.75,112.236003 100.75,111.704 C100.75,111.197331 100.939998,110.754002 101.32,110.374 C101.700002,109.993998 102.168664,109.804 102.726,109.804 C103.283336,109.804 103.751998,109.987665 104.132,110.355 C104.512002,110.722335 104.702,111.159331 104.702,111.666 C104.702,112.223336 104.512002,112.691998 104.132,113.072 C103.751998,113.452002 103.283336,113.642 102.726,113.642 Z M111.58,109.804 L114.278,109.804 L114.278,138 L111.58,138 L111.58,109.804 Z M125.184,113.832 L125.184,124.282 L138.94,124.282 L138.94,126.714 L125.184,126.714 L125.184,138 L122.372,138 L122.372,111.4 L140.612,111.4 L140.612,113.832 L125.184,113.832 Z M145.476,118.012 L148.174,118.012 L148.174,138 L145.476,138 L145.476,118.012 Z M146.844,113.642 C146.286664,113.642 145.818002,113.452002 145.438,113.072 C145.057998,112.691998 144.868,112.236003 144.868,111.704 C144.868,111.197331 145.057998,110.754002 145.438,110.374 C145.818002,109.993998 146.286664,109.804 146.844,109.804 C147.401336,109.804 147.869998,109.987665 148.25,110.355 C148.630002,110.722335 148.82,111.159331 148.82,111.666 C148.82,112.223336 148.630002,112.691998 148.25,113.072 C147.869998,113.452002 147.401336,113.642 146.844,113.642 Z M165.882,117.86 C168.390013,117.86 170.384993,118.588326 171.867,120.045 C173.349007,121.501674 174.09,123.623319 174.09,126.41 L174.09,138 L171.392,138 L171.392,126.676 C171.392,124.598656 170.872672,123.015339 169.834,121.926 C168.795328,120.836661 167.313343,120.292 165.388,120.292 C163.234656,120.292 161.531006,120.93166 160.277,122.211 C159.022994,123.49034 158.396,125.257322 158.396,127.512 L158.396,138 L155.698,138 L155.698,118.012 L158.282,118.012 L158.282,121.698 C159.01667,120.481994 160.036327,119.538337 161.341,118.867 C162.645673,118.195663 164.159325,117.86 165.882,117.86 Z M199.74,109.804 L199.74,138 L197.156,138 L197.156,134.048 C196.345329,135.390673 195.275007,136.416663 193.945,137.126 C192.614993,137.835337 191.114008,138.19 189.442,138.19 C187.567324,138.19 185.870008,137.759338 184.35,136.898 C182.829992,136.036662 181.639338,134.833341 180.778,133.288 C179.916662,131.742659 179.486,129.98201 179.486,128.006 C179.486,126.02999 179.916662,124.269341 180.778,122.724 C181.639338,121.178659 182.829992,119.981671 184.35,119.133 C185.870008,118.284329 187.567324,117.86 189.442,117.86 C191.063341,117.86 192.526327,118.195663 193.831,118.867 C195.135673,119.538337 196.205996,120.519994 197.042,121.812 L197.042,109.804 L199.74,109.804 Z M189.67,135.796 C191.06334,135.796 192.323661,135.473003 193.451,134.827 C194.578339,134.180997 195.464997,133.262673 196.111,132.072 C196.757003,130.881327 197.08,129.526008 197.08,128.006 C197.08,126.485992 196.757003,125.130673 196.111,123.94 C195.464997,122.749327 194.578339,121.831003 193.451,121.185 C192.323661,120.538997 191.06334,120.216 189.67,120.216 C188.251326,120.216 186.978339,120.538997 185.851,121.185 C184.723661,121.831003 183.837003,122.749327 183.191,123.94 C182.544997,125.130673 182.222,126.485992 182.222,128.006 C182.222,129.526008 182.544997,130.881327 183.191,132.072 C183.837003,133.262673 184.723661,134.180997 185.851,134.827 C186.978339,135.473003 188.251326,135.796 189.67,135.796 Z M224.668,128.842 L207.948,128.842 C208.100001,130.919344 208.897993,132.59766 210.342,133.877 C211.786007,135.15634 213.609989,135.796 215.814,135.796 C217.05534,135.796 218.195328,135.574336 219.234,135.131 C220.272672,134.687664 221.171996,134.035338 221.932,133.174 L223.452,134.922 C222.565329,135.986005 221.457007,136.796664 220.127,137.354 C218.796993,137.911336 217.334008,138.19 215.738,138.19 C213.68599,138.19 211.868341,137.753004 210.285,136.879 C208.701659,136.004996 207.466671,134.795341 206.58,133.25 C205.693329,131.704659 205.25,129.956676 205.25,128.006 C205.25,126.055324 205.674329,124.307341 206.523,122.762 C207.371671,121.216659 208.536993,120.013338 210.019,119.152 C211.501007,118.290662 213.166657,117.86 215.016,117.86 C216.865343,117.86 218.524659,118.290662 219.994,119.152 C221.463341,120.013338 222.615996,121.210326 223.452,122.743 C224.288004,124.275674 224.706,126.02999 224.706,128.006 L224.668,128.842 Z M215.016,120.178 C213.090657,120.178 211.475673,120.792327 210.171,122.021 C208.866327,123.249673 208.125334,124.85199 207.948,126.828 L222.122,126.828 C221.944666,124.85199 221.203673,123.249673 219.899,122.021 C218.594327,120.792327 216.966676,120.178 215.016,120.178 Z M232.8,121.926 C233.433336,120.583327 234.376994,119.570003 235.631,118.886 C236.885006,118.201997 238.436657,117.86 240.286,117.86 L240.286,120.482 L239.64,120.444 C237.537323,120.444 235.890673,121.089994 234.7,122.382 C233.509327,123.674006 232.914,125.485322 232.914,127.816 L232.914,138 L230.216,138 L230.216,118.012 L232.8,118.012 L232.8,121.926 Z" id="path-1"></path>
        <path d="M243.268,97.02 L252.92,120.694 L262.534,97.02 L265.308,97.02 L254.06,124 L251.742,124 L240.494,97.02 L243.268,97.02 Z M266.6,124 C266.6,123.138662 266.675999,122.271004 266.828,121.397 C266.980001,120.522996 267.277664,119.655338 267.721,118.794 C268.164336,117.932662 268.797663,117.103004 269.621,116.305 C270.444337,115.506996 271.539993,114.753337 272.908,114.044 C273.64267,113.663998 274.408996,113.290335 275.207,112.923 C276.005004,112.555665 276.739663,112.144002 277.411,111.688 C278.082337,111.231998 278.633331,110.719003 279.064,110.149 C279.494669,109.578997 279.71,108.914004 279.71,108.154 C279.71,107.672664 279.602334,107.197669 279.387,106.729 C279.171666,106.260331 278.855002,105.842335 278.437,105.475 C278.018998,105.107665 277.49967,104.810001 276.879,104.582 C276.25833,104.353999 275.530004,104.24 274.694,104.24 C273.857996,104.24 273.11067,104.360332 272.452,104.601 C271.79333,104.841668 271.217002,105.126665 270.723,105.456 C270.228998,105.785335 269.804668,106.133665 269.45,106.501 C269.095332,106.868335 268.829334,107.165999 268.652,107.394 L266.942,105.532 C267.094001,105.379999 267.385331,105.101335 267.816,104.696 C268.246669,104.290665 268.81033,103.885335 269.507,103.48 C270.20367,103.074665 271.020662,102.713668 271.958,102.397 C272.895338,102.080332 273.946661,101.922 275.112,101.922 C276.277339,101.922 277.315995,102.080332 278.228,102.397 C279.140005,102.713668 279.912664,103.150664 280.546,103.708 C281.179336,104.265336 281.660665,104.904996 281.99,105.627 C282.319335,106.349004 282.484,107.102663 282.484,107.888 C282.484,108.926672 282.256002,109.825996 281.8,110.586 C281.343998,111.346004 280.780337,112.004664 280.109,112.562 C279.437663,113.119336 278.722004,113.594331 277.962,113.987 C277.201996,114.379669 276.518003,114.715332 275.91,114.994 C275.099329,115.348668 274.307671,115.747664 273.535,116.191 C272.762329,116.634336 272.072003,117.121997 271.464,117.654 C270.855997,118.186003 270.355669,118.78133 269.963,119.44 C269.570331,120.09867 269.374,120.833329 269.374,121.644 L282.902,121.644 L282.902,124 L266.6,124 Z" id="path-2"></path>
        <filter x="-16.5%" y="-18.5%" width="133.0%" height="151.9%" filterUnits="objectBoundingBox" id="filter-3">
            <feOffset dx="0" dy="2" in="SourceAlpha" result="shadowOffsetOuter1"></feOffset>
            <feGaussianBlur stdDeviation="2" in="shadowOffsetOuter1" result="shadowBlurOuter1"></feGaussianBlur>
            <feColorMatrix values="0 0 0 0 0   0 0 0 0 0   0 0 0 0 0  0 0 0 0.5 0" type="matrix" in="shadowBlurOuter1"></feColorMatrix>
        </filter>
    </defs>
    <g id="Page-1" stroke="none" stroke-width="1" fill="none" fill-rule="evenodd">
        <g id="Artboard" transform="translate(-420.000000, -88.000000)">
            <g id="TrailFinder2" transform="translate(420.000000, 88.000000)">
                <rect id="Rectangle" fill="#0A1B2E" x="0.5" y="0.5" width="313" height="313" rx="4"></rect>
                <g id="TrailFinder" fill="#FFFFFF">
                    <use xlink:href="#path-1"></use>
                    <use xlink:href="#path-1"></use>
                </g>
                <g id="compass" transform="translate(124.000000, 163.000000)" fill="#FBFBFB" fill-rule="nonzero">
                    <path d="M33,20 C19.7663775,20 9,30.7663775 9,44 C9,57.2336225 19.7663775,68 33,68 C46.2336225,68 57,57.2336225 57,44 C57,30.7663775 46.2336225,20 33,20 Z M34.554571,64.8333479 L34.554571,62.8302278 C34.554571,61.9716193 33.8586084,61.2756568 33,61.2756568 C32.1413916,61.2756568 31.445429,61.9716193 31.445429,62.8302278 L31.445429,64.8333479 C21.1626459,64.0732855 12.9267145,55.8375039 12.1666521,45.5547207 L14.1697722,45.5547207 C15.0283807,45.5547207 15.7243432,44.8586084 15.7243432,44.0001498 C15.7243432,43.1415413 15.0283807,42.4455788 14.1697722,42.4455788 L12.1666521,42.4455788 C12.9267145,32.1626459 21.1624961,23.9268643 31.445429,23.1668019 L31.445429,25.169922 C31.445429,26.0283807 32.1413916,26.724493 33,26.724493 C33.8586084,26.724493 34.554571,26.0283807 34.554571,25.169922 L34.554571,23.1668019 C44.8373541,23.9268643 53.0732855,32.1626459 53.8331981,42.4455788 L51.8302278,42.4455788 C50.9716193,42.4455788 50.2756568,43.1415413 50.2756568,44.0001498 C50.2756568,44.8586084 50.9716193,45.5547207 51.8302278,45.5547207 L53.8333479,45.5547207 C53.0731357,55.8373541 44.8373541,64.0732855 34.554571,64.8333479 Z" id="Shape"></path>
                    <path d="M34.5649951,11.2108472 L34.5649951,9.18283363 L37.0793311,9.18283363 C37.9437801,9.18283363 38.6444769,8.48396976 38.6444769,7.62178199 L38.6444769,1.56105164 C38.6444769,0.698863869 37.9437801,0 37.0793311,0 L28.9196134,0 C28.0551644,0 27.3544676,0.698863869 27.3544676,1.56105164 L27.3544676,7.62178199 C27.3544676,8.48396976 28.0551644,9.18283363 28.9196134,9.18283363 L31.4350049,9.18283363 L31.4350049,11.2108472 C13.9626693,12.0286699 0,26.4611788 0,44.0863241 C0,62.2349781 14.803596,77 33,77 C51.196404,77 66,62.2349781 66,44.0863241 C66,26.4611788 52.0371799,12.0286699 34.5649951,11.2108472 Z M30.4846085,6.06088074 L30.4846085,3.12210328 L35.5141852,3.12210328 L35.5141852,6.06088074 L30.4846085,6.06088074 Z M32.9998492,73.7136705 C16.6204016,73.7136705 3.29479793,60.422925 3.29479793,44.0863241 C3.29479793,27.7497231 16.6204016,14.459128 32.9998492,14.459128 C49.3792968,14.459128 62.7049005,27.7498735 62.7049005,44.0864744 C62.7050513,60.4230753 49.3794476,73.7136705 32.9998492,73.7136705 Z" id="Shape"></path>
                    <path d="M44.5407762,32.4593539 C44.0785993,31.9971714 43.3783863,31.8701467 42.7832958,32.1405084 L28.4391987,38.6606044 C28.4272667,38.6660419 28.4160899,38.6726876 28.4041578,38.6784272 C28.3802938,38.6899062 28.3564298,38.7018384 28.3330189,38.7146768 C28.3118735,38.7261558 28.2916344,38.7386921 28.2710932,38.7513795 C28.2500989,38.7642179 28.2289535,38.7767542 28.2084123,38.7908009 C28.1840952,38.8072643 28.1608353,38.825087 28.1374244,38.8429098 C28.1218675,38.8548419 28.1058574,38.8660189 28.0907536,38.8785552 C28.013422,38.9424451 27.9424341,39.013434 27.8785449,39.0907664 C27.8658577,39.1063236 27.8545299,39.1224849 27.8424468,39.138193 C27.8247753,39.1613021 27.8071039,39.1842602 27.7909428,39.2082756 C27.7767452,39.2291191 27.7639069,39.2505668 27.7507666,39.2720145 C27.7385325,39.2919518 27.7262984,39.3118891 27.7149706,39.3325815 C27.7018302,39.3564459 27.6898982,39.3806123 27.6779662,39.4050808 C27.6723778,39.4165598 27.6658832,39.4275857 27.6605968,39.4392158 L21.1405801,53.7834875 C20.8700707,54.3784342 20.9972449,55.0788069 21.4592707,55.5406873 C21.7596857,55.8412569 22.1608431,56 22.5681931,56 C22.7873495,56 23.0083184,55.9539328 23.2166001,55.8593817 L37.5606972,49.3392857 C37.5726292,49.3338482 37.583655,49.3272025 37.5952849,49.321614 C37.6193,49.3098329 37.6433151,49.2980517 37.666877,49.2852133 C37.6878714,49.2737343 37.7079594,49.261349 37.7281986,49.2489637 C37.7493439,49.2361253 37.7706403,49.223438 37.7911815,49.2092402 C37.8151966,49.1929279 37.8384564,49.1752562 37.8614142,49.1575845 C37.8772733,49.1455013 37.8934343,49.1341733 37.9088402,49.1214859 C37.9860207,49.0577471 38.0570087,48.9867582 38.1207468,48.9095768 C38.1338871,48.8937176 38.1456681,48.8769521 38.1580532,48.8607909 C38.1752716,48.8381348 38.19249,48.8157809 38.2085,48.7922187 C38.2228486,48.7710731 38.2358379,48.7494744 38.2491293,48.7278756 C38.2612123,48.7080894 38.2734464,48.6884542 38.2846233,48.6679127 C38.2977636,48.6440484 38.3098466,48.6195799 38.3217787,48.5951114 C38.3273671,48.5837834 38.3338617,48.5727575 38.339148,48.5611274 L44.8591647,34.2168557 C45.1299762,33.6216069 45.0029531,32.9213853 44.5407762,32.4593539 Z M25.7247403,51.2750147 L29.5787819,42.7960805 L34.2035713,47.4209262 L25.7247403,51.2750147 Z M36.420812,45.2039607 L31.7960225,40.5791149 L40.2748535,36.7250264 L36.420812,45.2039607 Z" id="Shape"></path>
                </g>
                <path d="M254,147.5 L63,147.5" id="Line" stroke="#FFFFFF" stroke-width="2" fill="#FFFFFF" stroke-linecap="square"></path>
                <g id="V2">
                    <use fill="black" fill-opacity="1" filter="url(#filter-3)" xlink:href="#path-2"></use>
                    <use fill="#920D0D" fill-rule="evenodd" xlink:href="#path-2"></use>
                </g>
            </g>
        </g>
    </g>
</svg>